# xmcd CD database file generated by OrangeCD 6.3
#
# Track frame offsets:
#	182
#	22940
#	38387
#	67705
#	78980
#	116557
#	128552
#	160245
#	178255
#	205002
#	230125
#	240875
#
# Disc length: 3713 seconds
#
# Revision: 2
# Processed by: cddbd v1.5.2PL0 Copyright (c) Steve Scherf et al.
# Submitted via: OrangeCD 6.3
#
DISCID=860e7f0c
DTITLE=Fred McDowell - Mississippi Blues
DYEAR=1995
DGENRE=Delta Blues
TTITLE0=Some Day Baby
TTITLE1=Milk Cow Blues
TTITLE2=The Train I Ride
TTITLE3=Over The Hill
TTITLE4=Goin' Down To The River
TTITLE5=I Wished I Were In Heaven Sitting Down
TTITLE6=Louise
TTITLE7=Germany Blues
TTITLE8=Some Sweet Day
TTITLE9=The Sun Rose This Morning
TTITLE10=When I Lay My Burden Down
TTITLE11=Goin' Down To Louisiana
EXTD=
EXTT0=
EXTT1=
EXTT2=
EXTT3=
EXTT4=
EXTT5=
EXTT6=
EXTT7=
EXTT8=
EXTT9=
EXTT10=
EXTT11=
PLAYORDER=
